HIERARCHY
ROOT Hips
{
	OFFSET 0.000000 83.214638 0.000000
	CHANNELS 6 Xposition Yposition Zposition Xrotation Yrotation Zrotation
	JOINT Pelvis
	{
		OFFSET 0.000000 0.000000 0.000000
		CHANNELS 3 Xrotation Yrotation Zrotation
		JOINT LeftUpLeg
		{
			OFFSET 8.479700 -4.795502 -0.379100
			CHANNELS 3 Xrotation Yrotation Zrotation
			JOINT LeftLeg
			{
				OFFSET 0.024144 -32.555107 0.112900
				CHANNELS 3 Xrotation Yrotation Zrotation
				JOINT LeftFoot
				{
					OFFSET -0.024144 -32.638630 -3.012600
					CHANNELS 3 Xrotation Yrotation Zrotation
					JOINT LeftToeBase
					{
						OFFSET 0.970200 -13.225400 11.864200
						CHANNELS 3 Xrotation Yrotation Zrotation
						End Site
						{
							OFFSET 0.000000 12.319262 0.000000
						}
					}
					JOINT LFootTongue
					{
						OFFSET 1.142400 -1.059800 6.665200
						CHANNELS 3 Xrotation Yrotation Zrotation
						End Site
						{
							OFFSET 0.000000 12.319262 0.000000
						}
					}
				}
				JOINT LeftPantLeg
				{
					OFFSET 0.918482 -16.533964 -2.284700
					CHANNELS 3 Xrotation Yrotation Zrotation
					End Site
					{
						OFFSET 0.350399 24.744368 0.000000
					}
				}
			}
		}
		JOINT RightUpLeg
		{
			OFFSET -8.479700 -4.795502 -0.379100
			CHANNELS 3 Xrotation Yrotation Zrotation
			JOINT RightLeg
			{
				OFFSET -0.023144 -32.555092 0.112900
				CHANNELS 3 Xrotation Yrotation Zrotation
				JOINT RightFoot
				{
					OFFSET 0.023144 -32.638641 -3.012700
					CHANNELS 3 Xrotation Yrotation Zrotation
					JOINT RightToeBase
					{
						OFFSET -0.970200 -13.225400 11.864200
						CHANNELS 3 Xrotation Yrotation Zrotation
						End Site
						{
							OFFSET 0.000000 12.319244 0.000000
						}
					}
					JOINT RFootTongue
					{
						OFFSET -1.142200 -1.059800 6.665200
						CHANNELS 3 Xrotation Yrotation Zrotation
						End Site
						{
							OFFSET 0.000000 12.319243 0.000000
						}
					}
				}
				JOINT RightPantLeg
				{
					OFFSET -0.919482 -16.533978 -2.284800
					CHANNELS 3 Xrotation Yrotation Zrotation
					End Site
					{
						OFFSET -0.350400 24.744419 0.000000
					}
				}
			}
		}
	}
	JOINT Spine
	{
		OFFSET 0.000000 7.722000 1.166200
		CHANNELS 3 Xrotation Yrotation Zrotation
		JOINT Spine1
		{
			OFFSET 0.000000 12.024101 0.248800
			CHANNELS 3 Xrotation Yrotation Zrotation
			JOINT Spine2
			{
				OFFSET 0.000000 11.502998 -0.491200
				CHANNELS 3 Xrotation Yrotation Zrotation
				JOINT Neck
				{
					OFFSET 0.000000 18.430702 -3.123100
					CHANNELS 3 Xrotation Yrotation Zrotation
					JOINT Head
					{
						OFFSET 0.000000 9.051102 1.034000
						CHANNELS 3 Xrotation Yrotation Zrotation
						JOINT HairB
						{
							OFFSET 0.208400 24.786102 24.822300
							CHANNELS 3 Xrotation Yrotation Zrotation
							End Site
							{
								OFFSET 0.000000 32.263779 0.000000
							}
						}
						JOINT HairA
						{
							OFFSET -7.081100 24.428299 23.196600
							CHANNELS 3 Xrotation Yrotation Zrotation
							End Site
							{
								OFFSET 0.000000 32.263779 0.000000
							}
						}
						JOINT Hat
						{
							OFFSET 16.728800 15.048294 -15.439601
							CHANNELS 3 Xrotation Yrotation Zrotation
							End Site
							{
								OFFSET 0.000000 32.263779 0.000000
							}
						}
					}
				}
				JOINT LeftShoulder
				{
					OFFSET 6.197800 13.665199 -4.064700
					CHANNELS 3 Xrotation Yrotation Zrotation
					JOINT LeftArm
					{
						OFFSET 7.778100 -0.187103 -1.709300
						CHANNELS 3 Xrotation Yrotation Zrotation
						JOINT LeftForeArm
						{
							OFFSET 22.049376 0.000000 0.000000
							CHANNELS 3 Xrotation Yrotation Zrotation
							JOINT LeftHand
							{
								OFFSET 23.009392 0.000000 0.000000
								CHANNELS 3 Xrotation Yrotation Zrotation
								JOINT LeftHandThumb1
								{
									OFFSET 3.507191 -2.063065 3.133727
									CHANNELS 3 Xrotation Yrotation Zrotation
									JOINT LeftHandThumb2
									{
										OFFSET 3.101337 -1.790558 1.790558
										CHANNELS 3 Xrotation Yrotation Zrotation
										JOINT LeftHandThumb3
										{
											OFFSET 3.058640 -1.765907 1.765906
											CHANNELS 3 Xrotation Yrotation Zrotation
											End Site
											{
												OFFSET -0.415260 3.926476 -0.049563
											}
										}
									}
								}
								JOINT LeftHandIndex1
								{
									OFFSET 11.334419 -0.901459 3.706815
									CHANNELS 3 Xrotation Yrotation Zrotation
									JOINT LeftHandIndex2
									{
										OFFSET 3.283112 0.000000 0.000000
										CHANNELS 3 Xrotation Yrotation Zrotation
										JOINT LeftHandIndex3
										{
											OFFSET 3.323853 0.000000 0.000000
											CHANNELS 3 Xrotation Yrotation Zrotation
											End Site
											{
												OFFSET -1.135597 3.097809 0.402452
											}
										}
									}
								}
								JOINT LeftHandMiddle1
								{
									OFFSET 11.335861 0.000000 0.000000
									CHANNELS 3 Xrotation Yrotation Zrotation
									JOINT LeftHandMiddle2
									{
										OFFSET 3.410492 0.000000 0.000000
										CHANNELS 3 Xrotation Yrotation Zrotation
										JOINT LeftHandMiddle3
										{
											OFFSET 3.312172 0.000000 0.000000
											CHANNELS 3 Xrotation Yrotation Zrotation
											End Site
											{
												OFFSET -1.150200 3.080154 0.400270
											}
										}
									}
								}
								JOINT LeftHandRing1
								{
									OFFSET 11.514786 -0.013176 -3.003090
									CHANNELS 3 Xrotation Yrotation Zrotation
									JOINT LeftHandRing2
									{
										OFFSET 3.053307 0.000000 0.000000
										CHANNELS 3 Xrotation Yrotation Zrotation
										JOINT LeftHandRing3
										{
											OFFSET 3.295807 0.000000 0.000000
											CHANNELS 3 Xrotation Yrotation Zrotation
											End Site
											{
												OFFSET -1.281006 3.013344 0.375733
											}
										}
									}
								}
								JOINT LeftHandPinky1
								{
									OFFSET 10.518692 -0.960396 -5.730441
									CHANNELS 3 Xrotation Yrotation Zrotation
									JOINT LeftHandPinky2
									{
										OFFSET 2.861649 0.000000 0.000000
										CHANNELS 3 Xrotation Yrotation Zrotation
										JOINT LeftHandPinky3
										{
											OFFSET 2.863380 0.000000 0.000000
											CHANNELS 3 Xrotation Yrotation Zrotation
											End Site
											{
												OFFSET -0.843597 2.711159 0.369971
											}
										}
									}
								}
							}
							JOINT LSleeve
							{
								OFFSET 6.676277 -0.344902 -1.011730
								CHANNELS 3 Xrotation Yrotation Zrotation
								End Site
								{
									OFFSET 0.000000 14.885353 0.000000
								}
							}
						}
					}
				}
				JOINT RightShoulder
				{
					OFFSET -6.197800 13.665199 -4.064700
					CHANNELS 3 Xrotation Yrotation Zrotation
					JOINT RightArm
					{
						OFFSET -7.778100 -0.187103 -1.709300
						CHANNELS 3 Xrotation Yrotation Zrotation
						JOINT RightForeArm
						{
							OFFSET -22.049376 0.000000 0.000000
							CHANNELS 3 Xrotation Yrotation Zrotation
							JOINT RightHand
							{
								OFFSET -23.009392 0.000000 0.000000
								CHANNELS 3 Xrotation Yrotation Zrotation
								JOINT RightHandThumb1
								{
									OFFSET -3.507191 -2.063065 3.133727
									CHANNELS 3 Xrotation Yrotation Zrotation
									JOINT RightHandThumb2
									{
										OFFSET -3.101337 -1.790558 1.790558
										CHANNELS 3 Xrotation Yrotation Zrotation
										JOINT RightHandThumb3
										{
											OFFSET -3.058640 -1.765907 1.765906
											CHANNELS 3 Xrotation Yrotation Zrotation
											End Site
											{
												OFFSET 0.415260 3.926476 -0.049563
											}
										}
									}
								}
								JOINT RightHandIndex1
								{
									OFFSET -11.334419 -0.901459 3.706815
									CHANNELS 3 Xrotation Yrotation Zrotation
									JOINT RightHandIndex2
									{
										OFFSET -3.283112 0.000000 0.000000
										CHANNELS 3 Xrotation Yrotation Zrotation
										JOINT RightHandIndex3
										{
											OFFSET -3.323853 0.000000 0.000000
											CHANNELS 3 Xrotation Yrotation Zrotation
											End Site
											{
												OFFSET 1.135597 3.097809 0.402452
											}
										}
									}
								}
								JOINT RightHandMiddle1
								{
									OFFSET -11.335861 0.000000 0.000000
									CHANNELS 3 Xrotation Yrotation Zrotation
									JOINT RightHandMiddle2
									{
										OFFSET -3.410492 0.000000 0.000000
										CHANNELS 3 Xrotation Yrotation Zrotation
										JOINT RightHandMiddle3
										{
											OFFSET -3.312172 0.000000 0.000000
											CHANNELS 3 Xrotation Yrotation Zrotation
											End Site
											{
												OFFSET 1.150200 3.080154 0.400270
											}
										}
									}
								}
								JOINT RightHandRing1
								{
									OFFSET -11.514786 -0.013176 -3.003090
									CHANNELS 3 Xrotation Yrotation Zrotation
									JOINT RightHandRing2
									{
										OFFSET -3.053307 0.000000 0.000000
										CHANNELS 3 Xrotation Yrotation Zrotation
										JOINT RightHandRing3
										{
											OFFSET -3.295807 0.000000 0.000000
											CHANNELS 3 Xrotation Yrotation Zrotation
											End Site
											{
												OFFSET 1.281006 3.013344 0.375733
											}
										}
									}
								}
								JOINT RightHandPinky1
								{
									OFFSET -10.518692 -0.960396 -5.730441
									CHANNELS 3 Xrotation Yrotation Zrotation
									JOINT RightHandPinky2
									{
										OFFSET -2.861649 0.000000 0.000000
										CHANNELS 3 Xrotation Yrotation Zrotation
										JOINT RightHandPinky3
										{
											OFFSET -2.863380 0.000000 0.000000
											CHANNELS 3 Xrotation Yrotation Zrotation
											End Site
											{
												OFFSET 0.843597 2.711159 0.369971
											}
										}
									}
								}
							}
							JOINT RSleeve
							{
								OFFSET -6.676277 -0.344902 -1.011730
								CHANNELS 3 Xrotation Yrotation Zrotation
								End Site
								{
									OFFSET 0.000000 14.885353 0.000000
								}
							}
						}
					}
				}
				JOINT Backpack
				{
					OFFSET 0.000000 -2.471497 36.677502
					CHANNELS 3 Xrotation Yrotation Zrotation
					End Site
					{
						OFFSET 0.000000 20.427315 0.000000
					}
				}
				JOINT Hood
				{
					OFFSET 0.000000 18.754097 -10.431000
					CHANNELS 3 Xrotation Yrotation Zrotation
					JOINT Hood1
					{
						OFFSET 0.000000 -5.011002 -7.685901
						CHANNELS 3 Xrotation Yrotation Zrotation
						End Site
						{
							OFFSET 0.000000 9.175140 0.000000
						}
					}
				}
				JOINT LHoodieString
				{
					OFFSET 5.250500 16.397697 3.089900
					CHANNELS 3 Xrotation Yrotation Zrotation
					JOINT LHoodieString1
					{
						OFFSET 0.257700 -6.364304 3.694600
						CHANNELS 3 Xrotation Yrotation Zrotation
						JOINT LHoodieString2
						{
							OFFSET 0.000000 -9.643799 2.679100
							CHANNELS 3 Xrotation Yrotation Zrotation
							End Site
							{
								OFFSET 0.000000 10.009018 0.000000
							}
						}
					}
				}
				JOINT RHoodieString
				{
					OFFSET -5.250500 16.397697 3.089900
					CHANNELS 3 Xrotation Yrotation Zrotation
					JOINT RHoodieString1
					{
						OFFSET -0.257700 -6.364304 3.694600
						CHANNELS 3 Xrotation Yrotation Zrotation
						JOINT RHoodieString2
						{
							OFFSET 0.000000 -9.643799 2.679100
							CHANNELS 3 Xrotation Yrotation Zrotation
							End Site
							{
								OFFSET 0.000000 10.009018 0.000000
							}
						}
					}
				}
			}
			JOINT LBackpack_Strap
			{
				OFFSET 15.223200 -7.719803 -6.610900
				CHANNELS 3 Xrotation Yrotation Zrotation
				End Site
				{
					OFFSET 0.000000 16.040596 0.000000
				}
			}
			JOINT RBackpack_Strap
			{
				OFFSET -15.223000 -7.719803 -6.610900
				CHANNELS 3 Xrotation Yrotation Zrotation
				End Site
				{
					OFFSET 0.000000 16.040596 0.000000
				}
			}
		}
	}
	JOINT BoyFacialAnim_Joint
	{
		OFFSET 1.000000 -82.208099 -1.550900
		CHANNELS 3 Xrotation Yrotation Zrotation
		End Site
		{
			OFFSET 0.000000 30.012791 0.000000
		}
	}
}
MOTION
Frames: 4
Frame Time: 0.033333
0.031019 78.815407 0.065823 -21.170366 -55.784013 -16.015520 -0.000001 -0.000003 -0.000000 -26.185487 3.190978 9.407645 67.414923 -1.836797 4.405042 9.387661 0.063792 -3.378994 -0.000001 0.000002 0.000001 -0.000001 0.000002 -0.000000 -0.000002 -0.000001 0.000002 -10.216569 -27.067965 -8.444716 39.657899 9.811431 -3.187694 -21.641951 -21.971805 -4.101676 0.000000 -0.000000 0.000000 0.000000 -0.000000 0.000000 -0.000002 -0.000001 0.000000 21.504115 10.388241 0.840518 1.620197 0.233569 -7.464131 10.840938 -4.182632 -2.116168 0.344154 7.460475 0.875100 -7.055118 21.656578 11.877585 -0.000000 -0.000000 0.000001 -0.000000 -0.000000 0.000001 -0.000000 -0.000000 0.000001 -37.581432 -4.847298 1.554884 -41.286356 -2.740027 -56.843891 0.000028 -68.267447 0.000028 -114.770606 0.593739 39.955473 4.709219 9.560362 3.111990 19.473194 -1.474910 7.636916 -0.000002 -0.000004 0.000001 -0.212810 3.933738 -36.747118 2.942141 5.078895 -60.144610 0.000002 -0.000000 -0.000004 0.405917 5.507058 -52.453155 3.387157 5.308619 -65.057456 0.000002 -0.000001 0.000000 -0.074375 5.736785 -61.061413 4.055034 5.569509 -72.094907 0.000000 -0.000002 -0.000001 -6.565565 4.545148 -72.425229 3.299633 5.267221 -64.107835 0.000001 0.000000 -0.000000 -0.000001 -0.000004 -0.000001 -41.191491 -8.549920 -9.960724 -56.321412 56.912483 108.760135 -0.000506 91.908883 0.000557 -59.294156 -14.814592 -22.806874 8.377131 -4.904146 11.021999 21.620204 -18.183885 -18.379206 -0.000001 0.000000 -0.000002 -0.920039 1.683574 12.434977 0.748115 -2.533473 32.898286 0.000000 -0.000001 0.000003 3.413060 -7.186252 51.650242 6.296807 -4.359589 110.634660 0.000001 0.000001 -0.000004 -3.349051 -2.600448 57.010551 5.440875 -4.590900 99.698168 0.000000 -0.000001 0.000005 -3.996450 -3.303939 64.593837 4.058846 -4.618693 82.610510 -0.000000 -0.000001 -0.000002 -0.000002 -0.000001 0.000001 -0.000001 0.000002 -0.000000 -0.000001 0.000002 -0.000000 -0.000001 0.000002 -0.000000 -0.000001 0.000002 -0.000000 -0.000001 0.000002 -0.000000 -0.000002 0.000002 -0.000000 -0.000001 0.000002 -0.000000 -0.000001 0.000002 -0.000000 -0.000002 0.000002 -0.000000 0.000000 0.000001 0.000000 0.000000 0.000001 0.000000 -0.000001 -0.000003 -0.000000 
-3.886053 79.425896 -0.084008 -19.718039 -55.634292 -14.637070 -0.000001 0.000001 0.000000 -28.866907 7.215042 8.832223 59.541156 0.797016 1.552441 5.984590 1.338926 -2.886387 -0.000002 0.000000 0.000001 -0.000002 0.000000 -0.000001 0.000002 -0.000004 0.000001 -4.724127 -28.125052 -6.083073 35.186939 9.503942 -1.563114 -23.618540 -21.263847 -6.597859 -0.000000 -0.000001 -0.000000 -0.000000 -0.000001 -0.000000 -0.000001 0.000001 -0.000000 21.303941 10.825633 0.683406 1.856401 0.311263 -7.367434 10.902243 -4.029124 -2.134088 0.273783 7.462751 0.842680 -7.361047 21.608108 11.737736 0.000002 -0.000001 0.000000 0.000002 -0.000001 0.000000 0.000002 -0.000001 0.000000 -37.589266 -4.997063 1.556197 -42.065223 -3.642662 -57.384271 0.000124 -67.122140 0.000125 -114.627008 0.059361 39.104442 4.445271 8.839510 3.034119 18.271290 -1.869146 7.382421 -0.000003 -0.000001 0.000000 -0.162395 3.973940 -36.341773 2.941561 5.078577 -60.138142 -0.000001 -0.000001 -0.000000 0.476472 5.554426 -52.323692 3.401221 5.315111 -65.209530 0.000001 0.000002 -0.000003 -0.030588 5.747217 -60.868214 4.057645 5.570359 -72.121907 0.000005 0.000001 -0.000000 -6.727353 4.489656 -72.409069 3.280589 5.257976 -63.900238 -0.000000 -0.000000 -0.000004 0.000000 0.000000 -0.000002 -41.252157 -8.480038 -10.206756 -55.196938 56.428619 107.118014 -0.002966 91.631065 0.003191 -59.161671 -14.621360 -21.767347 8.284253 -4.684630 11.004721 21.439192 -18.207688 -18.317065 -0.000002 -0.000000 0.000001 -0.943367 1.688660 12.680994 0.737254 -2.516625 32.651624 -0.000000 -0.000000 0.000002 3.385728 -7.166359 51.614281 6.296820 -4.359572 110.634728 0.000001 0.000001 -0.000000 -3.324257 -2.633522 57.133276 5.443390 -4.590465 99.729532 0.000000 0.000000 0.000000 -3.969573 -3.333922 64.712935 4.058859 -4.618681 82.610564 -0.000000 -0.000001 -0.000003 0.000001 -0.000000 -0.000000 0.000001 -0.000000 -0.000000 0.000001 -0.000000 -0.000000 0.000001 -0.000000 -0.000000 0.000001 -0.000000 -0.000000 0.000001 -0.000000 0.000000 -0.000000 -0.000000 0.000000 0.000001 -0.000000 -0.000000 0.000001 -0.000000 0.000000 -0.000000 -0.000000 0.000000 -0.000001 0.000001 -0.000000 -0.000001 0.000001 -0.000000 -0.000001 0.000001 0.000000 
-7.705725 79.834892 -0.149530 -18.138469 -55.217428 -13.347857 0.000001 -0.000001 -0.000000 -29.821186 11.317570 8.402126 49.148211 1.376715 -1.766474 5.146710 3.759796 -1.574529 0.000000 0.000002 -0.000001 0.000000 0.000002 -0.000001 -0.000001 0.000001 0.000000 1.324588 -28.224059 -2.479611 29.985972 8.858655 -0.541737 -25.044466 -21.554107 -9.014372 0.000000 0.000000 0.000000 0.000000 0.000000 0.000000 0.000000 -0.000001 -0.000000 20.952924 11.002254 0.670088 2.094008 0.358326 -7.338732 10.961417 -3.918562 -2.212881 0.131358 7.398652 1.043700 -7.659197 21.768393 11.631716 0.000002 0.000000 -0.000001 0.000002 0.000000 -0.000001 0.000002 0.000000 -0.000001 -37.595625 -5.173791 1.721897 -43.108940 -4.488928 -58.041090 0.000114 -66.280893 0.000136 -114.253041 -0.561141 38.615041 4.099500 7.931824 2.953608 16.892591 -2.469720 7.219302 -0.000001 -0.000001 0.000001 -0.163487 3.956550 -36.108020 2.935786 5.075296 -60.072934 -0.000001 -0.000001 -0.000000 0.464890 5.541084 -52.238899 3.401596 5.315296 -65.213622 0.000000 -0.000000 0.000002 -0.026667 5.734713 -60.660358 4.054839 5.569454 -72.092947 -0.000002 0.000001 -0.000000 -6.851532 4.447325 -72.398250 3.263312 5.249501 -63.711438 -0.000004 -0.000004 -0.000001 0.000001 -0.000001 -0.000001 -41.226571 -8.269152 -10.011862 -53.509143 56.011660 104.539365 0.006910 91.770285 -0.006826 -59.286008 -14.490950 -20.908881 8.187221 -4.455210 10.987005 21.356530 -18.293408 -18.113370 -0.000000 -0.000000 0.000001 -0.963096 1.659069 12.969345 0.726241 -2.499374 32.400201 -0.000000 0.000000 0.000002 3.484182 -7.225281 52.014455 6.294842 -4.360301 110.608725 0.000001 0.000001 0.000002 -3.302938 -2.677391 57.352818 5.438826 -4.591238 99.672712 -0.000001 0.000000 0.000000 -3.964018 -3.359700 64.874127 4.057580 -4.618523 82.594862 0.000001 -0.000000 -0.000002 -0.000002 0.000001 0.000000 0.000002 -0.000001 0.000001 0.000002 -0.000001 0.000001 0.000002 -0.000001 0.000001 0.000002 -0.000001 0.000001 0.000002 -0.000001 0.000001 0.000001 0.000000 -0.000001 0.000002 -0.000001 0.000001 0.000002 -0.000001 0.000001 0.000001 0.000000 -0.000001 0.000001 -0.000001 0.000001 0.000001 -0.000001 0.000001 0.000001 -0.000001 -0.000000 
-11.582793 80.099304 -0.108903 -16.410663 -54.954442 -11.806487 0.000000 -0.000001 -0.000000 -28.778684 14.825284 7.154025 36.840015 1.958265 -5.257145 3.514318 5.520496 -1.425495 -0.000000 0.000001 -0.000001 -0.000000 0.000001 -0.000000 0.000000 0.000003 -0.000001 7.656266 -27.899434 1.422606 23.751315 8.072415 0.240019 -25.962323 -21.863828 -11.905723 -0.000000 -0.000001 0.000000 -0.000000 -0.000001 0.000000 0.000001 -0.000000 0.000001 20.318022 11.068984 0.347560 2.385473 0.399908 -7.293956 11.074739 -3.808604 -2.273111 -0.140617 7.406628 1.196274 -7.882917 21.954144 11.627574 -0.000000 0.000000 -0.000002 -0.000000 0.000000 -0.000002 -0.000000 0.000000 -0.000002 -37.593303 -5.285891 2.146061 -44.171001 -4.851029 -58.655131 0.000063 -65.819186 0.000078 -113.848011 -0.989347 38.272330 4.085851 7.801118 2.884432 16.315543 -2.902278 7.288239 -0.000002 0.000002 -0.000001 -0.019004 4.133778 -35.756682 2.956762 5.087239 -60.309648 -0.000000 0.000000 -0.000002 0.592372 5.631932 -52.081306 3.421877 5.324572 -65.432290 0.000006 0.000000 0.000000 -0.130447 5.658731 -60.416233 4.079553 5.577333 -72.347461 -0.000003 -0.000003 0.000001 -7.111712 4.354620 -72.358724 3.243923 5.239938 -63.499558 -0.000003 -0.000003 -0.000006 -0.000002 0.000001 -0.000001 -41.215766 -8.025723 -9.865631 -52.492189 55.615109 102.642717 -0.001323 91.895175 0.001420 -59.312031 -14.188573 -20.225157 8.070280 -4.178329 10.966119 21.292177 -18.435529 -17.776795 0.000000 0.000001 0.000002 -0.978796 1.620646 13.237279 0.715217 -2.481983 32.147057 0.000000 0.000001 0.000000 3.612766 -7.301533 52.497845 6.294280 -4.360540 110.601342 0.000001 0.000001 0.000002 -3.270281 -2.721544 57.523184 5.429486 -4.592834 99.556387 -0.000001 -0.000000 0.000000 -3.966511 -3.384197 65.052928 4.069419 -4.620019 82.741786 -0.000000 -0.000001 -0.000002 -0.000001 -0.000001 0.000000 0.000002 0.000004 -0.000002 0.000002 0.000004 -0.000002 0.000002 0.000004 -0.000002 0.000002 0.000004 -0.000002 0.000002 0.000004 -0.000001 0.000001 0.000003 -0.000002 0.000002 0.000004 -0.000002 0.000002 0.000004 -0.000001 0.000001 0.000003 -0.000002 -0.000000 -0.000001 0.000000 -0.000000 -0.000001 0.000000 0.000000 -0.000001 -0.000000 
